<?xml version="1.0" encoding="utf-8"?>
<!-- Generator: Adobe Illustrator 18.1.1, SVG Export Plug-In . SVG Version: 6.00 Build 0)  -->
<!DOCTYPE svg PUBLIC "-//W3C//DTD SVG 1.1 Tiny//EN" "http://www.w3.org/Graphics/SVG/1.1/DTD/svg11-tiny.dtd">
<svg version="1.1" baseProfile="tiny" id="Layer_1" xmlns="http://www.w3.org/2000/svg" xmlns:xlink="http://www.w3.org/1999/xlink"
	 x="0px" y="0px" viewBox="0 0 792 612" xml:space="preserve">
<rect x="90" display="none" fill="#D0D2D3" width="612" height="612"/>
<polygon id="fourteen" fill="#837D7A" points="293.2,223.5 272.7,292.7 293.2,374.5 "/>
<polygon id="thirteen" fill="#837D7A" points="320.3,374.5 293.2,374.5 321.2,403.3 406.9,382.7 "/>
<polygon id="twelve" fill="#837D7A" points="406.9,382.7 320.3,374.5 320.4,291 "/>
<polygon id="eleven" fill="#837D7A" points="321.2,403.3 462.4,403.3 406.9,382.7 "/>
<polygon id="ten" fill="#837D7A" points="406.9,382.7 462.4,403.3 470.1,374.4 421.2,307.2 406.9,323 "/>
<polygon id="nine" fill="#837D7A" points="421.2,307.2 470.1,374.4 462.4,403.3 "/>
<polygon id="eight" fill="#837D7A" points="462.4,403.3 502.9,374.4 470.1,374.4 "/>
<polygon id="seven" fill="#837D7A" points="493.9,227.1 438.8,288.1 502.9,374.4 516.4,303.6 "/>
<polygon id="six" fill="#837D7A" points="493.8,227.1 463.8,203.8 460.6,227.1 "/>
<polygon id="five" fill="#837D7A" points="407,286.7 435.3,225.4 463.8,203.8 460.6,227.1 "/>
<polygon id="four" fill="#837D7A" points="387.3,203.9 406.9,227.1 407,286.7 435.3,225.4 463.8,203.8 "/>
<polygon id="three" fill="#837D7A" points="406.9,226.9 387.3,203.9 307.4,203.9 379.6,227.1 "/>
<polygon id="two_1_" fill="#837D7A" points="379.6,227.1 307.4,203.9 379.9,314 "/>
<polygon id="one_1_" fill="#837D7A" points="379.9,314 307.4,203.9 293.2,223.5 "/>
<polygon id="NK_3_" display="none" fill="#837D7A" points="138.5,224.6 138.5,73.6 225.3,164 224.9,77.1 252.2,77 252.3,136.8 
	305.7,77.1 339.2,77.1 284.2,138.2 348.3,224.5 315.4,224.5 266.6,157.3 252.2,173 252.2,232.7 165.7,141.1 165.6,224.6 "/>
<g id="_x31_">
	<polygon id="Fourteen" fill="#3BA6B5" points="269.6,206.2 244.1,292.4 269.6,394.5 	"/>
	<polygon id="Thirteen" fill="#8DA7B7" points="303.4,394.6 269.6,394.5 304.6,430.4 411.4,404.7 	"/>
	<polygon id="Twelve" fill="#BECCD0" points="411.4,404.7 303.4,394.6 303.5,290.3 	"/>
	<polygon id="Eleven" fill="#8791AB" points="304.6,430.4 480.6,430.4 411.4,404.7 	"/>
	<polygon id="Ten" fill="#EECACD" points="411.4,404.7 480.6,430.4 490.1,394.4 429.4,310.6 411.4,330.3 	"/>
	<polygon id="Nine" fill="#EDDAD3" points="429.4,310.6 490.1,394.4 480.6,430.4 	"/>
	<polygon id="Eight" fill="#D1A7B0" points="480.6,430.4 531.1,394.4 490.1,394.4 	"/>
	<polygon id="Seven" fill="#FCE9ED" points="519.9,210.7 451.2,286.7 531.1,394.4 547.9,306.1 	"/>
	<polygon id="Six" fill="#EECACD" points="519.7,210.7 482.4,181.6 478.2,210.7 	"/>
	<polygon id="Five" fill="#E7E9E9" points="411.4,285.1 446.8,208.5 482.4,181.6 478.2,210.7 	"/>
	<polygon id="Four" fill="#D1E8ED" points="386.9,181.7 411.4,210.6 411.6,285.1 446.8,208.5 482.4,181.6 	"/>
	<polygon id="Three" fill="#D1EBF6" points="411.4,210.5 386.9,181.7 287.4,181.7 377.3,210.7 	"/>
	<polygon id="Two" fill="#9EDBEE" points="377.3,210.7 287.4,181.7 377.8,319 	"/>
	<polygon id="One" fill="#68BCE0" points="377.8,319 287.4,181.7 269.6,206.2 	"/>
</g>
</svg>
