<?xml version="1.0" encoding="utf-8"?>
<!-- Generator: Adobe Illustrator 18.1.1, SVG Export Plug-In . SVG Version: 6.00 Build 0)  -->
<!DOCTYPE svg PUBLIC "-//W3C//DTD SVG 1.1 Tiny//EN" "http://www.w3.org/Graphics/SVG/1.1/DTD/svg11-tiny.dtd">
<svg version="1.1" baseProfile="tiny" id="Layer_1" xmlns="http://www.w3.org/2000/svg" xmlns:xlink="http://www.w3.org/1999/xlink"
	 x="0px" y="0px" viewBox="226 145 370 300" xml:space="preserve">
<rect x="105" y="-9" display="none" fill="#D0D2D3" width="612" height="612"/>
<polygon id="fourteen" display="none" fill="#837D7A" points="308.2,214.5 287.7,283.7 308.2,365.5 "/>
<polygon id="thirteen" display="none" fill="#837D7A" points="335.3,365.5 308.2,365.5 336.2,394.3 421.9,373.7 "/>
<polygon id="twelve" display="none" fill="#837D7A" points="421.9,373.7 335.3,365.5 335.4,282 "/>
<polygon id="eleven" display="none" fill="#837D7A" points="336.2,394.3 477.4,394.3 421.9,373.7 "/>
<polygon id="ten" display="none" fill="#837D7A" points="421.9,373.7 477.4,394.3 485.1,365.4 436.2,298.2 421.9,314 "/>
<polygon id="nine" display="none" fill="#837D7A" points="436.2,298.2 485.1,365.4 477.4,394.3 "/>
<polygon id="eight" display="none" fill="#837D7A" points="477.4,394.3 517.9,365.4 485.1,365.4 "/>
<polygon id="seven" display="none" fill="#837D7A" points="508.9,218.1 453.8,279.1 517.9,365.4 531.4,294.6 "/>
<polygon id="six" display="none" fill="#837D7A" points="508.8,218.1 478.8,194.8 475.6,218.1 "/>
<polygon id="five" display="none" fill="#837D7A" points="422,277.7 450.3,216.4 478.8,194.8 475.6,218.1 "/>
<polygon id="four" display="none" fill="#837D7A" points="402.3,194.9 421.9,218.1 422,277.7 450.3,216.4 478.8,194.8 "/>
<polygon id="three" display="none" fill="#837D7A" points="421.9,217.9 402.3,194.9 322.4,194.9 394.6,218.1 "/>
<polygon id="two_1_" display="none" fill="#837D7A" points="394.6,218.1 322.4,194.9 394.9,305 "/>
<polygon id="one_1_" display="none" fill="#837D7A" points="394.9,305 322.4,194.9 308.2,214.5 "/>
<polygon id="NK_3_" display="none" fill="#837D7A" points="153.5,215.6 153.5,64.6 240.3,155 239.9,68.1 267.2,68 267.3,127.8 
	320.7,68.1 354.2,68.1 299.2,129.2 363.3,215.5 330.4,215.5 281.6,148.3 267.2,164 267.2,223.7 180.7,132.1 180.6,215.6 "/>
<g id="_x31_">
	<polygon id="Fourteen" fill="#3BA6B5" points="286.6,197.2 261.1,283.4 286.6,385.5 	"/>
	<polygon id="Thirteen" fill="#8DA7B7" points="320.4,385.6 286.6,385.5 321.6,421.4 428.4,395.7 	"/>
	<polygon id="Twelve" fill="#BECCD0" points="428.4,395.7 320.4,385.6 320.5,281.3 	"/>
	<polygon id="Eleven" fill="#8791AB" points="321.6,421.4 497.6,421.4 428.4,395.7 	"/>
	<polygon id="Ten" fill="#EECACD" points="428.4,395.7 497.6,421.4 507.1,385.4 446.4,301.6 428.4,321.3 	"/>
	<polygon id="Nine" fill="#EDDAD3" points="446.4,301.6 507.1,385.4 497.6,421.4 	"/>
	<polygon id="Eight" fill="#D1A7B0" points="497.6,421.4 548.1,385.4 507.1,385.4 	"/>
	<polygon id="Seven" fill="#FCE9ED" points="536.9,201.7 468.2,277.7 548.1,385.4 564.9,297.1 	"/>
	<polygon id="Six" fill="#EECACD" points="536.7,201.7 499.4,172.6 495.2,201.7 	"/>
	<polygon id="Five" fill="#E7E9E9" points="428.4,276.1 463.8,199.5 499.4,172.6 495.2,201.7 	"/>
	<polygon id="Four" fill="#D1E8ED" points="403.9,172.7 428.4,201.6 428.6,276.1 463.8,199.5 499.4,172.6 	"/>
	<polygon id="Three" fill="#D1EBF6" points="428.4,201.5 403.9,172.7 304.4,172.7 394.3,201.7 	"/>
	<polygon id="Two" fill="#9EDBEE" points="394.3,201.7 304.4,172.7 394.8,310 	"/>
	<polygon id="One" fill="#68BCE0" points="394.8,310 304.4,172.7 286.6,197.2 	"/>
</g>
</svg>
