<?xml version="1.0" encoding="utf-8"?>
<!-- Generator: Adobe Illustrator 18.1.1, SVG Export Plug-In . SVG Version: 6.00 Build 0)  -->
<!DOCTYPE svg PUBLIC "-//W3C//DTD SVG 1.1 Tiny//EN" "http://www.w3.org/Graphics/SVG/1.1/DTD/svg11-tiny.dtd">
<svg version="1.1" baseProfile="tiny" id="Layer_1" xmlns="http://www.w3.org/2000/svg" xmlns:xlink="http://www.w3.org/1999/xlink"
	 x="0px" y="0px" viewBox="0 0 400 400" xml:space="preserve">
<rect display="none" fill="#D0D2D3" width="400" height="400"/>
<polygon id="fourteen" fill="#837D7A" points="132.8,146.1 119.4,191.3 132.8,244.8 "/>
<polygon id="thirteen" fill="#837D7A" points="150.5,244.8 132.8,244.8 151.1,263.6 207.1,250.1 "/>
<polygon id="twelve" fill="#837D7A" points="207.1,250.1 150.5,244.8 150.6,190.2 "/>
<polygon id="eleven" fill="#837D7A" points="151.1,263.6 243.4,263.6 207.1,250.1 "/>
<polygon id="ten" fill="#837D7A" points="207.1,250.1 243.4,263.6 248.4,244.7 216.5,200.8 207.1,211.1 "/>
<polygon id="nine" fill="#837D7A" points="216.5,200.8 248.4,244.7 243.4,263.6 "/>
<polygon id="eight" fill="#837D7A" points="243.4,263.6 269.9,244.7 248.4,244.7 "/>
<polygon id="seven" fill="#837D7A" points="264,148.4 228,188.3 269.9,244.7 278.7,198.4 "/>
<polygon id="six" fill="#837D7A" points="263.9,148.4 244.3,133.2 242.2,148.4 "/>
<polygon id="five" fill="#837D7A" points="207.2,187.4 225.7,147.3 244.3,133.2 242.2,148.4 "/>
<polygon id="four" fill="#837D7A" points="194.3,133.3 207.1,148.4 207.2,187.4 225.7,147.3 244.3,133.2 "/>
<polygon id="three" fill="#837D7A" points="207.1,148.3 194.3,133.3 142.1,133.3 189.3,148.4 "/>
<polygon id="two_1_" fill="#837D7A" points="189.3,148.4 142.1,133.3 189.5,205.2 "/>
<polygon id="one_1_" fill="#837D7A" points="189.5,205.2 142.1,133.3 132.8,146.1 "/>
<polygon id="NK_3_" display="none" fill="#837D7A" points="31.7,146.8 31.7,48.1 88.4,107.2 88.2,50.4 106,50.3 106.1,89.4 
	141,50.4 162.9,50.4 126.9,90.3 168.8,146.7 147.3,146.7 115.4,102.8 106,113.1 106,152.1 49.5,92.2 49.4,146.8 "/>
</svg>
