<svg version="1.1" x="0px" y="0px" viewBox="0 0 150 125">
	<g id="shapes">
		<polygon fill="#EECACD" points="83,108.2 115.3,120.2 119.7,103.4 91.3,64.3 83,73.4 	"/>
		<polygon fill="#D1E8ED" points="71.5,4 83,17.5 83,52.3 99.5,16.5 116.1,4 	"/>
		<polygon fill="#FCE9ED" points="133.7,17.5 101.5,53.1 138.9,103.4 146.8,62.1 	"/>
		<polygon fill="#D1EBF6" points="83,17.5 71.5,4 25,4 67,17.5 	"/>
		<polygon fill="#8791AB" points="33,120.2 115.3,120.2 83,108.2 	"/>
		<polygon fill="#D1A7B0" points="115.3,120.2 138.9,103.4 119.7,103.4 	"/>
		<polygon fill="#EECACD" points="133.6,17.5 116.1,4 114.2,17.5 	"/>
		<polygon fill="#8DA7B7" points="32.5,103.5 16.7,103.5 33,120.2 83,108.2 	"/>
		<polygon fill="#3BA6B5" points="16.7,15.5 4.7,55.8 16.7,103.5 	"/>
		<polygon fill="#E7E9E9" points="83,52.3 99.5,16.5 116.1,4 114.2,17.5 	"/>
		<polygon fill="#9EDBEE" points="67,17.5 25,4 67.3,68.2 	"/>
		<polygon fill="#68BCE0" points="67.3,68.2 25,4 16.7,15.5 	"/>
		<polygon fill="#BECCD0" points="83,108.2 32.5,103.5 32.5,54.8 	"/>
		<polygon fill="#EDDAD3" points="91.3,64.3 119.7,103.4 115.3,120.2 	"/>
	</g>
</svg>
