<?xml version="1.0" encoding="UTF-8" standalone="no"?>
<svg
   xmlns:dc="http://purl.org/dc/elements/1.1/"
   xmlns:cc="http://creativecommons.org/ns#"
   xmlns:rdf="http://www.w3.org/1999/02/22-rdf-syntax-ns#"
   xmlns:svg="http://www.w3.org/2000/svg"
   xmlns="http://www.w3.org/2000/svg"
   xmlns:sodipodi="http://sodipodi.sourceforge.net/DTD/sodipodi-0.dtd"
   xmlns:inkscape="http://www.inkscape.org/namespaces/inkscape"
   id="preloader"
   x="0px"
   y="0px"
   viewBox="0 0 400 400"
   version="1.1"
   inkscape:version="0.91 r13725"
   sodipodi:docname="nk_outlines.svg">
  <metadata
     id="metadata4012">
    <rdf:RDF>
      <cc:Work
         rdf:about="">
        <dc:format>image/svg+xml</dc:format>
        <dc:type
           rdf:resource="http://purl.org/dc/dcmitype/StillImage" />
      </cc:Work>
    </rdf:RDF>
  </metadata>
  <defs
     id="defs4010" />
  <sodipodi:namedview
     pagecolor="#ffffff"
     bordercolor="#666666"
     borderopacity="1"
     objecttolerance="10"
     gridtolerance="10"
     guidetolerance="10"
     inkscape:pageopacity="0"
     inkscape:pageshadow="2"
     inkscape:window-width="998"
     inkscape:window-height="701"
     id="namedview4008"
     showgrid="false"
     inkscape:zoom="1.02"
     inkscape:cx="200"
     inkscape:cy="200"
     inkscape:window-x="187"
     inkscape:window-y="82"
     inkscape:window-maximized="0"
     inkscape:current-layer="preloader" />
  <g
     id="polygons">
    <polygon
       id="fourteen"
       stroke-miterlimit="10"
       points="132.8,146.1 119.4,191.3 132.8,244.8 "
       stroke-linejoin="round"
       stroke-linecap="square"
       stroke-width="0.5"
       stroke="#232323"
       fill="none" />
    <polygon
       id="thirteen"
       stroke-miterlimit="10"
       points="150.5,244.8 132.8,244.8 151.1,263.6 207.1,250.1 "
       stroke-linejoin="round"
       stroke-linecap="square"
       stroke-width="0.5"
       stroke="#232323"
       fill="none" />
    <polygon
       id="twelve"
       stroke-miterlimit="10"
       points="207.1,250.1 150.5,244.8 150.6,190.2 "
       stroke-linejoin="round"
       stroke-linecap="square"
       stroke-width="0.5"
       stroke="#232323"
       fill="none" />
    <polygon
       id="eleven"
       stroke-miterlimit="10"
       points="151.1,263.6 243.4,263.6 207.1,250.1 "
       stroke-linejoin="round"
       stroke-linecap="square"
       stroke-width="0.5"
       stroke="#232323"
       fill="none" />
    <polygon
       id="ten"
       stroke-miterlimit="10"
       points="207.1,250.1 243.4,263.6 248.4,244.7 216.5,200.8 207.1,211.1 "
       stroke-linejoin="round"
       stroke-linecap="square"
       stroke-width="0.5"
       stroke="#232323"
       fill="none" />
    <polygon
       id="nine"
       stroke-miterlimit="10"
       points="216.5,200.8 248.4,244.7 243.4,263.6 "
       stroke-linejoin="round"
       stroke-linecap="square"
       stroke-width="0.5"
       stroke="#232323"
       fill="none" />
    <polygon
       id="eight"
       stroke-miterlimit="10"
       points="243.4,263.6 269.9,244.7 248.4,244.7 "
       stroke-linejoin="round"
       stroke-linecap="square"
       stroke-width="0.5"
       stroke="#232323"
       fill="none" />
    <polygon
       id="seven"
       stroke-miterlimit="10"
       points="264,148.4 228,188.3 269.9,244.7 278.7,198.4 "
       stroke-linejoin="round"
       stroke-linecap="square"
       stroke-width="0.5"
       stroke="#232323"
       fill="none" />
    <polygon
       id="six"
       stroke-miterlimit="10"
       points="263.9,148.4 244.3,133.2 242.2,148.4 "
       stroke-linejoin="round"
       stroke-linecap="square"
       stroke-width="0.5"
       stroke="#232323"
       fill="none" />
    <polygon
       id="five"
       stroke-miterlimit="10"
       points="207.2,187.4 225.7,147.3 244.3,133.2 242.2,148.4 "
       stroke-linejoin="round"
       stroke-linecap="square"
       stroke-width="0.5"
       stroke="#232323"
       fill="none" />
    <polygon
       id="four"
       stroke-miterlimit="10"
       points="194.3,133.3 207.1,148.4 207.2,187.4 225.7,147.3 244.3,133.2 "
       stroke-linejoin="round"
       stroke-linecap="square"
       stroke-width="0.5"
       stroke="#232323"
       fill="none" />
    <polygon
       id="three"
       stroke-miterlimit="10"
       points="207.1,148.3 194.3,133.3 142.1,133.3 189.3,148.4 "
       stroke-linejoin="round"
       stroke-linecap="square"
       stroke-width="0.5"
       stroke="#232323"
       fill="none" />
    <polygon
       id="two"
       stroke-miterlimit="10"
       points="189.3,148.4 142.1,133.3 189.5,205.2 "
       stroke-linejoin="round"
       stroke-linecap="square"
       stroke-width="0.5"
       stroke="#232323"
       fill="none" />
    <polygon
       id="one"
       stroke-miterlimit="10"
       points="189.5,205.2 142.1,133.3 132.8,146.1 "
       stroke-linejoin="round"
       stroke-linecap="square"
       stroke-width="0.5"
       stroke="#232323"
       fill="none" />
  </g>
  <polygon
     id="NK_5_"
     class="st5"
     points="222.9,142.3 310.2,44.7 364.8,44.7 274.8,144.4 379.5,285.4 325.8,285.4 246.2,175.7 222.7,201.4 222.7,298.9 81.3,149.1 81.2,285.8 36.8,285.7 36.8,38.9 178.7,186.6 178,44.7 222.7,44.5 "
     transform="matrix(0.40201052,0,0,0.40201052,117.59426,129.71945)" />
</svg>
