<svg id="NK_logo" x="0px" y="0px" viewBox="0 0 200 200">

	<path id="diamond" fill="none" stroke="#232323" stroke-linecap="square" stroke-linejoin="round" stroke-miterlimit="10" d="M106,113.1l9.4-10.3
		l31.9,43.9l-5,18.9L106,152.1V113.1z M93.2,35.3L106,50.4l0.1,39.1l18.5-40.1l18.6-14.1L93.2,35.3z M162.9,50.4l-36,39.9l41.9,56.4
		l8.8-46.3L162.9,50.4z M106,50.3L93.2,35.3H41l47.2,15.2L106,50.3z M50,165.6l92.3,0L106,152.1L50,165.6z M142.3,165.6l26.5-18.9
		h-21.5L142.3,165.6z M162.8,50.4l-19.6-15.2L141,50.4H162.8z M49.4,146.8l-17.7,0L50,165.6l56-13.5L49.4,146.8z M31.7,48.1
		L18.3,93.3l13.4,53.5V48.1z M141,50.4l2.2-15.2l-18.6,14.1l-18.5,40.1L141,50.4z M88.2,50.4L41,35.3l47.4,71.9L88.2,50.4z
		 M88.4,107.2L41,35.3l-9.3,12.8L88.4,107.2z M49.5,92.2l0,54.7l56.6,5.3L49.5,92.2z M142.3,165.6l5-18.9l-31.9-43.9L142.3,165.6z"/>
	<polygon id="NK" fill="none" stroke="#232323" stroke-width="2" stroke-linecap="square" stroke-linejoin="round" stroke-miterlimit="10" points="31.7,146.8 31.7,48.1 88.4,107.2 88.2,50.4 106,50.3 106.1,89.4 141,50.4 162.9,50.4 
		126.9,90.3 168.8,146.7 147.3,146.7 115.4,102.8 106,113.1 106,152.1 49.5,92.2 49.4,146.8 "/>
</svg>
